<svg width="25" height="24" viewBox="0 0 25 24" fill="none" xmlns="http://www.w3.org/2000/svg">
<path fill-rule="evenodd" clip-rule="evenodd" d="M13.6546 3.35929C12.9835 3.00902 12.0741 3.00361 11.3976 3.35298C8.80466 4.69212 6.45279 6.22755 4.39182 7.93056C4.07311 8.19391 3.84693 8.5766 3.85079 9.02705C3.85463 9.47564 4.08541 9.85321 4.40218 10.1122C6.44604 11.7834 8.79985 13.3202 11.3453 14.6488C12.0165 14.999 12.9258 15.0044 13.6023 14.6551C16.1953 13.3159 18.5472 11.7805 20.6081 10.0775C20.9268 9.81413 21.153 9.43144 21.1492 8.981C21.1453 8.5324 20.9145 8.15483 20.5978 7.89582C18.5539 6.22464 16.2001 4.68782 13.6546 3.35929ZM12.0859 4.68573C12.3256 4.56196 12.7193 4.56313 12.9606 4.68907C15.3899 5.95698 17.6283 7.41568 19.5675 8.99125C17.6167 10.5922 15.385 12.0462 12.914 13.3223C12.6744 13.4461 12.2807 13.4449 12.0394 13.319C9.61004 12.0511 7.37163 10.5924 5.4324 9.01679C7.38321 7.41587 9.61496 5.96188 12.0859 4.68573Z" fill="#8E92BC"/>
<path d="M21.697 12.6971C21.9164 13.0484 21.8094 13.5111 21.458 13.7304L15.3508 17.5433C14.522 18.0607 13.4938 18.2999 12.4999 18.3C11.506 18.3001 10.4777 18.061 9.64884 17.5437L3.60851 13.7739C3.25711 13.5546 3.15003 13.092 3.36934 12.7406C3.58864 12.3892 4.05128 12.2821 4.40268 12.5014L10.443 16.2712C10.9872 16.6108 11.7264 16.8 12.4998 16.8C13.2732 16.8 14.0124 16.6106 14.5564 16.2709L20.6636 12.458C21.015 12.2387 21.4776 12.3457 21.697 12.6971Z" fill="#8E92BC"/>
<path d="M21.697 16.4517C21.9164 16.803 21.8094 17.2657 21.4581 17.4851L16.1692 20.788C15.1115 21.4484 13.7886 21.7592 12.4998 21.7593C11.2111 21.7593 9.88808 21.4488 8.8303 20.7884L3.60843 17.5286C3.25706 17.3093 3.15004 16.8466 3.36938 16.4952C3.58873 16.1439 4.05139 16.0368 4.40276 16.2562L9.62462 19.516C10.3976 19.9986 11.4316 20.2593 12.4998 20.2593C13.568 20.2592 14.6018 19.9983 15.3746 19.5157L20.6635 16.2128C21.0149 15.9934 21.4776 16.1004 21.697 16.4517Z" fill="#8E92BC"/>
</svg>
